<mxfile host="65bd71144e">
    <diagram id="ynWF1bHWw2R_tOJqrUCA" name="Page-1">
        <mxGraphModel dx="2459" dy="604" grid="1" gridSize="10" guides="1" tooltips="1" connect="1" arrows="1" fold="1" page="1" pageScale="1" pageWidth="1850" pageHeight="1100" math="0" shadow="0">
            <root>
                <mxCell id="0"/>
                <mxCell id="1" parent="0"/>
                <mxCell id="72" value="" style="rounded=0;whiteSpace=wrap;html=1;fontSize=10;" parent="1" vertex="1">
                    <mxGeometry x="390" y="1080" width="280" height="40" as="geometry"/>
                </mxCell>
                <mxCell id="104" value="&lt;div style=&quot;color: rgb(238, 255, 255); background-color: rgb(38, 50, 56); font-family: &amp;quot;Droid Sans Mono&amp;quot;, &amp;quot;monospace&amp;quot;, monospace; font-weight: normal; font-size: 14px; line-height: 19px;&quot;&gt;&lt;br&gt;&lt;/div&gt;" style="text;whiteSpace=wrap;html=1;fontSize=10;fontColor=none;" parent="1" vertex="1">
                    <mxGeometry x="560" y="890" width="190" height="40" as="geometry"/>
                </mxCell>
                <mxCell id="105" value="" style="rounded=0;whiteSpace=wrap;html=1;fontSize=10;" parent="1" vertex="1">
                    <mxGeometry x="400" y="1090" width="280" height="40" as="geometry"/>
                </mxCell>
                <mxCell id="106" value="" style="rounded=0;whiteSpace=wrap;html=1;fontSize=10;" parent="1" vertex="1">
                    <mxGeometry x="410" y="1100" width="280" height="40" as="geometry"/>
                </mxCell>
                <mxCell id="107" value="" style="rounded=0;whiteSpace=wrap;html=1;fontSize=10;" parent="1" vertex="1">
                    <mxGeometry x="420" y="1110" width="280" height="40" as="geometry"/>
                </mxCell>
                <mxCell id="108" value="" style="rounded=0;whiteSpace=wrap;html=1;fontSize=10;" parent="1" vertex="1">
                    <mxGeometry x="430" y="1120" width="280" height="40" as="geometry"/>
                </mxCell>
                <mxCell id="109" value="" style="rounded=0;whiteSpace=wrap;html=1;fontSize=10;" parent="1" vertex="1">
                    <mxGeometry x="440" y="1130" width="280" height="40" as="geometry"/>
                </mxCell>
                <mxCell id="110" value="" style="rounded=0;whiteSpace=wrap;html=1;fontSize=10;" parent="1" vertex="1">
                    <mxGeometry x="450" y="1140" width="280" height="40" as="geometry"/>
                </mxCell>
                <mxCell id="111" value="" style="rounded=0;whiteSpace=wrap;html=1;fontSize=10;" parent="1" vertex="1">
                    <mxGeometry x="460" y="1150" width="280" height="40" as="geometry"/>
                </mxCell>
                <mxCell id="118" value="" style="rounded=0;whiteSpace=wrap;html=1;fontSize=10;" parent="1" vertex="1">
                    <mxGeometry x="470" y="1160" width="280" height="40" as="geometry"/>
                </mxCell>
                <mxCell id="119" value="" style="rounded=0;whiteSpace=wrap;html=1;fontSize=10;" parent="1" vertex="1">
                    <mxGeometry x="480" y="1170" width="280" height="40" as="geometry"/>
                </mxCell>
                <mxCell id="128" value="&lt;div style=&quot;color: rgb(238, 255, 255); background-color: rgb(38, 50, 56); font-family: &amp;quot;Droid Sans Mono&amp;quot;, &amp;quot;monospace&amp;quot;, monospace; font-size: 14px; line-height: 19px;&quot;&gt;&lt;div style=&quot;line-height: 19px;&quot;&gt;&lt;span style=&quot;color: #82aaff;&quot;&gt;addToCartFormSubmit&lt;/span&gt;&lt;span style=&quot;color: #89ddff;&quot;&gt;(&lt;/span&gt;&lt;span style=&quot;color: #ff5370;&quot;&gt;e&lt;/span&gt;&lt;span style=&quot;color: #89ddff;&quot;&gt;)&lt;/span&gt;&lt;/div&gt;&lt;/div&gt;" style="rounded=0;whiteSpace=wrap;html=1;fontSize=10;" vertex="1" parent="1">
                    <mxGeometry x="-1000" y="280" width="280" height="40" as="geometry"/>
                </mxCell>
                <mxCell id="160" value="" style="edgeStyle=none;html=0;fontSize=10;" edge="1" parent="1" source="163" target="165">
                    <mxGeometry relative="1" as="geometry"/>
                </mxCell>
                <mxCell id="161" style="edgeStyle=none;html=0;entryX=0.5;entryY=0;entryDx=0;entryDy=0;fontSize=10;fontColor=none;exitX=0.5;exitY=1;exitDx=0;exitDy=0;" edge="1" parent="1" source="163" target="178">
                    <mxGeometry relative="1" as="geometry"/>
                </mxCell>
                <mxCell id="162" style="edgeStyle=none;html=0;exitX=0.5;exitY=0;exitDx=0;exitDy=0;fontSize=10;fontColor=none;" edge="1" parent="1" source="163" target="189">
                    <mxGeometry relative="1" as="geometry"/>
                </mxCell>
                <mxCell id="163" value="&lt;div style=&quot;color: rgb(238, 255, 255); background-color: rgb(38, 50, 56); font-family: &amp;quot;Droid Sans Mono&amp;quot;, &amp;quot;monospace&amp;quot;, monospace; font-size: 14px; line-height: 19px;&quot;&gt;&lt;div style=&quot;line-height: 19px;&quot;&gt;&lt;span style=&quot;color: #82aaff;&quot;&gt;onFindVariation&lt;/span&gt;&lt;span style=&quot;color: #89ddff;&quot;&gt;(&lt;/span&gt;&lt;span style=&quot;color: #ff5370;&quot;&gt;event&lt;/span&gt;&lt;span style=&quot;color: #89ddff;&quot;&gt;,&lt;/span&gt; &lt;span style=&quot;color: #ff5370;&quot;&gt;chosenAttributes&lt;/span&gt;&lt;span style=&quot;color: #89ddff;&quot;&gt;)&lt;/span&gt;&lt;/div&gt;&lt;/div&gt;" style="rounded=0;whiteSpace=wrap;html=1;fontSize=10;" vertex="1" parent="1">
                    <mxGeometry x="730" y="370" width="280" height="40" as="geometry"/>
                </mxCell>
                <mxCell id="164" value="" style="edgeStyle=none;html=0;fontSize=10;" edge="1" parent="1" source="165" target="166">
                    <mxGeometry relative="1" as="geometry"/>
                </mxCell>
                <mxCell id="165" value="&lt;div style=&quot;color: rgb(238, 255, 255); background-color: rgb(38, 50, 56); font-family: &amp;quot;Droid Sans Mono&amp;quot;, &amp;quot;monospace&amp;quot;, monospace; font-weight: normal; font-size: 14px; line-height: 19px;&quot;&gt;&lt;div&gt;&lt;span style=&quot;color: #c3e88d;&quot;&gt;update_variation_values,&amp;nbsp;&lt;/span&gt;&lt;/div&gt;&lt;div&gt;VariationForm&lt;/div&gt;&lt;/div&gt;" style="rounded=0;whiteSpace=wrap;html=1;fontSize=10;" vertex="1" parent="1">
                    <mxGeometry x="1090" y="370" width="280" height="40" as="geometry"/>
                </mxCell>
                <mxCell id="166" value="&lt;div style=&quot;color: rgb(238, 255, 255); background-color: rgb(38, 50, 56); font-family: &amp;quot;Droid Sans Mono&amp;quot;, &amp;quot;monospace&amp;quot;, monospace; font-weight: normal; font-size: 14px; line-height: 19px;&quot;&gt;&lt;div style=&quot;line-height: 19px;&quot;&gt;&lt;div style=&quot;line-height: 19px;&quot;&gt;&lt;span style=&quot;color: rgb(130, 170, 255);&quot;&gt;onUpdateAttributes&lt;/span&gt;&lt;span style=&quot;color: #89ddff;&quot;&gt;(&lt;/span&gt;&lt;span style=&quot;color: #ff5370;&quot;&gt;event&lt;/span&gt;&lt;span style=&quot;color: #89ddff;&quot;&gt;)&lt;/span&gt;&lt;/div&gt;&lt;/div&gt;&lt;/div&gt;" style="rounded=0;whiteSpace=wrap;html=1;fontSize=10;" vertex="1" parent="1">
                    <mxGeometry x="1450" y="370" width="280" height="40" as="geometry"/>
                </mxCell>
                <mxCell id="167" style="edgeStyle=none;html=0;entryX=0;entryY=0.5;entryDx=0;entryDy=0;fontSize=10;" edge="1" parent="1" source="170" target="180">
                    <mxGeometry relative="1" as="geometry"/>
                </mxCell>
                <mxCell id="168" style="edgeStyle=none;html=0;entryX=1;entryY=0.5;entryDx=0;entryDy=0;fontSize=10;fontColor=none;" edge="1" parent="1" source="170" target="175">
                    <mxGeometry relative="1" as="geometry"/>
                </mxCell>
                <mxCell id="169" style="edgeStyle=none;html=1;entryX=0.5;entryY=0;entryDx=0;entryDy=0;" edge="1" parent="1" source="170" target="188">
                    <mxGeometry relative="1" as="geometry"/>
                </mxCell>
                <mxCell id="170" value="&lt;div style=&quot;color: rgb(238, 255, 255); background-color: rgb(38, 50, 56); font-family: &amp;quot;Droid Sans Mono&amp;quot;, &amp;quot;monospace&amp;quot;, monospace; font-size: 14px; line-height: 19px;&quot;&gt;&lt;span style=&quot;color: #82aaff;&quot;&gt;onFoundVariation&lt;/span&gt;&lt;span style=&quot;color: #89ddff;&quot;&gt;(&lt;/span&gt;&lt;span style=&quot;color: #ff5370;&quot;&gt;event&lt;/span&gt;&lt;span style=&quot;color: #89ddff;&quot;&gt;,&lt;/span&gt; &lt;span style=&quot;color: #ff5370;&quot;&gt;variation&lt;/span&gt;&lt;span style=&quot;color: #89ddff;&quot;&gt;)&lt;/span&gt;&lt;/div&gt;" style="rounded=0;whiteSpace=wrap;html=1;fontSize=10;" vertex="1" parent="1">
                    <mxGeometry x="730" y="610" width="280" height="40" as="geometry"/>
                </mxCell>
                <mxCell id="171" value="&lt;span style=&quot;color: rgb(195, 232, 141); font-family: &amp;quot;Droid Sans Mono&amp;quot;, &amp;quot;monospace&amp;quot;, monospace; font-size: 14px; font-style: normal; font-variant-ligatures: normal; font-variant-caps: normal; font-weight: 400; letter-spacing: normal; orphans: 2; text-align: center; text-indent: 0px; text-transform: none; widows: 2; word-spacing: 0px; -webkit-text-stroke-width: 0px; background-color: rgb(38, 50, 56); text-decoration-thickness: initial; text-decoration-style: initial; text-decoration-color: initial; float: none; display: inline !important;&quot;&gt;check_variations,&amp;nbsp;&lt;br&gt;&lt;/span&gt;&lt;span style=&quot;color: rgb(238, 255, 255); font-family: &amp;quot;Droid Sans Mono&amp;quot;, &amp;quot;monospace&amp;quot;, monospace; font-size: 14px; background-color: rgb(38, 50, 56);&quot;&gt;VariationForm&lt;/span&gt;" style="rounded=0;whiteSpace=wrap;html=1;fontSize=10;" vertex="1" parent="1">
                    <mxGeometry x="370" y="370" width="280" height="40" as="geometry"/>
                </mxCell>
                <mxCell id="172" value="" style="endArrow=classic;html=1;fontSize=10;entryX=0;entryY=0.5;entryDx=0;entryDy=0;exitX=1;exitY=0.5;exitDx=0;exitDy=0;" edge="1" parent="1" source="171" target="163">
                    <mxGeometry width="50" height="50" relative="1" as="geometry">
                        <mxPoint x="680" y="530" as="sourcePoint"/>
                        <mxPoint x="730" y="480" as="targetPoint"/>
                    </mxGeometry>
                </mxCell>
                <mxCell id="173" value="&lt;div style=&quot;color: rgb(238, 255, 255); background-color: rgb(38, 50, 56); font-family: &amp;quot;Droid Sans Mono&amp;quot;, &amp;quot;monospace&amp;quot;, monospace; font-weight: normal; font-size: 14px; line-height: 19px;&quot;&gt;&lt;div&gt;&lt;span style=&quot;color: #82aaff;&quot;&gt;isMatch(&lt;/span&gt;&lt;span style=&quot;&quot;&gt;(&lt;/span&gt;&lt;span style=&quot;color: rgb(255, 83, 112);&quot;&gt;variation_attributes&lt;/span&gt;&lt;span style=&quot;color: rgb(137, 221, 255);&quot;&gt;,&lt;/span&gt;&lt;span style=&quot;&quot;&gt; &lt;/span&gt;&lt;span style=&quot;color: rgb(255, 83, 112);&quot;&gt;attributes&lt;/span&gt;)&lt;/div&gt;&lt;/div&gt;" style="rounded=0;whiteSpace=wrap;html=1;fontSize=10;" vertex="1" parent="1">
                    <mxGeometry x="370" y="730" width="280" height="40" as="geometry"/>
                </mxCell>
                <mxCell id="174" style="edgeStyle=none;html=0;entryX=0.5;entryY=0;entryDx=0;entryDy=0;fontSize=10;fontColor=none;" edge="1" parent="1" source="175" target="173">
                    <mxGeometry relative="1" as="geometry"/>
                </mxCell>
                <mxCell id="175" value="&lt;div style=&quot;color: rgb(238, 255, 255); background-color: rgb(38, 50, 56); font-family: &amp;quot;Droid Sans Mono&amp;quot;, &amp;quot;monospace&amp;quot;, monospace; font-weight: normal; font-size: 14px; line-height: 19px;&quot;&gt;&lt;div&gt;&lt;span style=&quot;color: #82aaff;&quot;&gt;findMatchingVariations&lt;/span&gt;&lt;span style=&quot;color: rgb(137, 221, 255);&quot;&gt;(&lt;/span&gt;&lt;span style=&quot;color: rgb(255, 83, 112);&quot;&gt;variations&lt;/span&gt;&lt;span style=&quot;color: rgb(137, 221, 255);&quot;&gt;,&lt;/span&gt;&lt;span style=&quot;&quot;&gt; &lt;/span&gt;&lt;span style=&quot;color: rgb(255, 83, 112);&quot;&gt;attributes&lt;/span&gt;&lt;span style=&quot;color: rgb(137, 221, 255);&quot;&gt;)&lt;/span&gt;&lt;/div&gt;&lt;/div&gt;" style="rounded=0;whiteSpace=wrap;html=1;fontSize=10;" vertex="1" parent="1">
                    <mxGeometry x="370" y="610" width="280" height="40" as="geometry"/>
                </mxCell>
                <mxCell id="176" value="&lt;div style=&quot;color: rgb(238, 255, 255); background-color: rgb(38, 50, 56); font-family: &amp;quot;Droid Sans Mono&amp;quot;, &amp;quot;monospace&amp;quot;, monospace; font-size: 14px; line-height: 19px;&quot;&gt;&lt;span style=&quot;color: #89ddff;&quot;&gt;'&lt;/span&gt;&lt;span style=&quot;color: #c3e88d;&quot;&gt;click&lt;/span&gt;&lt;span style=&quot;color: #89ddff;&quot;&gt;'&lt;/span&gt;&lt;span style=&quot;color: #89ddff;&quot;&gt;,&lt;/span&gt; &lt;span style=&quot;color: #89ddff;&quot;&gt;'&lt;/span&gt;&lt;span style=&quot;color: #c3e88d;&quot;&gt;.single_add_to_cart_button&lt;/span&gt;&lt;span style=&quot;color: #89ddff;&quot;&gt;'&lt;/span&gt;&lt;span style=&quot;color: #89ddff;&quot;&gt;,&lt;/span&gt;&lt;/div&gt;" style="rounded=0;whiteSpace=wrap;html=1;fontSize=10;" vertex="1" parent="1">
                    <mxGeometry x="370" y="50" width="280" height="40" as="geometry"/>
                </mxCell>
                <mxCell id="177" style="edgeStyle=none;html=0;entryX=0.5;entryY=0;entryDx=0;entryDy=0;fontSize=10;fontColor=none;" edge="1" parent="1" source="178" target="170">
                    <mxGeometry relative="1" as="geometry"/>
                </mxCell>
                <mxCell id="178" value="&lt;div style=&quot;color: rgb(238, 255, 255); background-color: rgb(38, 50, 56); font-family: &amp;quot;Droid Sans Mono&amp;quot;, &amp;quot;monospace&amp;quot;, monospace; font-weight: normal; font-size: 14px; line-height: 19px;&quot;&gt;&lt;div&gt;&lt;span style=&quot;color: #c3e88d;&quot;&gt;found_variation,&amp;nbsp;&lt;/span&gt;&lt;/div&gt;&lt;div&gt;VariationForm&lt;/div&gt;&lt;/div&gt;" style="rounded=0;whiteSpace=wrap;html=1;fontSize=10;" vertex="1" parent="1">
                    <mxGeometry x="730" y="490" width="280" height="40" as="geometry"/>
                </mxCell>
                <mxCell id="179" style="edgeStyle=none;html=0;entryX=0;entryY=0.5;entryDx=0;entryDy=0;fontSize=10;fontColor=none;" edge="1" parent="1" source="180" target="182">
                    <mxGeometry relative="1" as="geometry"/>
                </mxCell>
                <mxCell id="180" value="&lt;div style=&quot;color: rgb(238, 255, 255); background-color: rgb(38, 50, 56); font-family: &amp;quot;Droid Sans Mono&amp;quot;, &amp;quot;monospace&amp;quot;, monospace; font-weight: normal; font-size: 14px; line-height: 19px;&quot;&gt;&lt;div&gt;&lt;span style=&quot;color: #c3e88d;&quot;&gt;show_variation,&amp;nbsp;&lt;/span&gt;&lt;/div&gt;&lt;div&gt;VariationForm&lt;/div&gt;&lt;/div&gt;" style="rounded=0;whiteSpace=wrap;html=1;fontSize=10;" vertex="1" parent="1">
                    <mxGeometry x="1090" y="610" width="280" height="40" as="geometry"/>
                </mxCell>
                <mxCell id="181" value="&lt;div style=&quot;color: rgb(238, 255, 255); background-color: rgb(38, 50, 56); font-family: &amp;quot;Droid Sans Mono&amp;quot;, &amp;quot;monospace&amp;quot;, monospace; font-weight: normal; font-size: 14px; line-height: 19px;&quot;&gt;&lt;br&gt;&lt;/div&gt;" style="text;whiteSpace=wrap;html=1;fontSize=10;" vertex="1" parent="1">
                    <mxGeometry x="1410" y="800" width="220" height="40" as="geometry"/>
                </mxCell>
                <mxCell id="182" value="&lt;span style=&quot;border-color: rgb(0, 0, 0); color: rgb(238, 255, 255); font-family: &amp;quot;Droid Sans Mono&amp;quot;, &amp;quot;monospace&amp;quot;, monospace; font-size: 14px; font-style: normal; font-variant-ligatures: normal; font-variant-caps: normal; font-weight: 400; letter-spacing: normal; orphans: 2; text-align: left; text-indent: 0px; text-transform: none; widows: 2; word-spacing: 0px; -webkit-text-stroke-width: 0px; background-color: rgb(38, 50, 56); text-decoration-thickness: initial; text-decoration-style: initial; text-decoration-color: initial;&quot;&gt;&lt;span style=&quot;color: rgb(130, 170, 255);&quot;&gt;onShow&lt;/span&gt;&lt;/span&gt;&lt;span style=&quot;font-family: &amp;quot;Droid Sans Mono&amp;quot;, &amp;quot;monospace&amp;quot;, monospace; font-size: 14px; color: rgb(137, 221, 255);&quot;&gt;(&lt;/span&gt;&lt;span style=&quot;font-family: &amp;quot;Droid Sans Mono&amp;quot;, &amp;quot;monospace&amp;quot;, monospace; font-size: 14px; color: rgb(255, 83, 112);&quot;&gt;event&lt;/span&gt;&lt;span style=&quot;font-family: &amp;quot;Droid Sans Mono&amp;quot;, &amp;quot;monospace&amp;quot;, monospace; font-size: 14px; color: rgb(137, 221, 255);&quot;&gt;,&lt;/span&gt;&lt;span style=&quot;background-color: rgb(38, 50, 56); color: rgb(238, 255, 255); font-family: &amp;quot;Droid Sans Mono&amp;quot;, &amp;quot;monospace&amp;quot;, monospace; font-size: 14px;&quot;&gt; &lt;/span&gt;&lt;span style=&quot;font-family: &amp;quot;Droid Sans Mono&amp;quot;, &amp;quot;monospace&amp;quot;, monospace; font-size: 14px; color: rgb(255, 83, 112);&quot;&gt;variation&lt;/span&gt;&lt;span style=&quot;font-family: &amp;quot;Droid Sans Mono&amp;quot;, &amp;quot;monospace&amp;quot;, monospace; font-size: 14px; color: rgb(137, 221, 255);&quot;&gt;,&lt;/span&gt;&lt;span style=&quot;background-color: rgb(38, 50, 56); color: rgb(238, 255, 255); font-family: &amp;quot;Droid Sans Mono&amp;quot;, &amp;quot;monospace&amp;quot;, monospace; font-size: 14px;&quot;&gt; &lt;/span&gt;&lt;span style=&quot;font-family: &amp;quot;Droid Sans Mono&amp;quot;, &amp;quot;monospace&amp;quot;, monospace; font-size: 14px; color: rgb(255, 83, 112);&quot;&gt;purchasable&lt;/span&gt;&lt;span style=&quot;font-family: &amp;quot;Droid Sans Mono&amp;quot;, &amp;quot;monospace&amp;quot;, monospace; font-size: 14px; color: rgb(137, 221, 255);&quot;&gt;)&lt;/span&gt;" style="rounded=0;whiteSpace=wrap;html=1;fontSize=10;" vertex="1" parent="1">
                    <mxGeometry x="1450" y="610" width="280" height="40" as="geometry"/>
                </mxCell>
                <mxCell id="183" style="edgeStyle=none;html=0;entryX=0;entryY=0.5;entryDx=0;entryDy=0;fontSize=10;fontColor=none;" edge="1" parent="1" source="184" target="171">
                    <mxGeometry relative="1" as="geometry"/>
                </mxCell>
                <mxCell id="184" value="&lt;div style=&quot;color: rgb(238, 255, 255); background-color: rgb(38, 50, 56); font-family: &amp;quot;Droid Sans Mono&amp;quot;, &amp;quot;monospace&amp;quot;, monospace; font-size: 14px; line-height: 19px;&quot;&gt;&lt;span style=&quot;color: #82aaff;&quot;&gt;VariationForm&lt;/span&gt;&lt;/div&gt;" style="rounded=0;whiteSpace=wrap;html=1;fontSize=10;" vertex="1" parent="1">
                    <mxGeometry x="10" y="370" width="280" height="40" as="geometry"/>
                </mxCell>
                <mxCell id="185" style="edgeStyle=none;html=0;entryX=0.5;entryY=0;entryDx=0;entryDy=0;fontSize=10;fontColor=none;" edge="1" parent="1" source="186" target="171">
                    <mxGeometry relative="1" as="geometry">
                        <Array as="points">
                            <mxPoint x="510" y="270"/>
                        </Array>
                    </mxGeometry>
                </mxCell>
                <mxCell id="186" value="&lt;div style=&quot;color: rgb(238, 255, 255); background-color: rgb(38, 50, 56); font-family: &amp;quot;Droid Sans Mono&amp;quot;, &amp;quot;monospace&amp;quot;, monospace; font-weight: normal; font-size: 14px; line-height: 19px;&quot;&gt;&lt;div&gt;&lt;span style=&quot;color: #eeffff;&quot;&gt;onChange&lt;/span&gt;&lt;span style=&quot;color: rgb(137, 221, 255);&quot;&gt;(&lt;/span&gt;&lt;span style=&quot;color: rgb(255, 83, 112);&quot;&gt;event&lt;/span&gt;&lt;span style=&quot;color: rgb(137, 221, 255);&quot;&gt;)&lt;/span&gt;&lt;/div&gt;&lt;/div&gt;" style="rounded=0;whiteSpace=wrap;html=1;fontSize=10;" vertex="1" parent="1">
                    <mxGeometry x="10" y="250" width="280" height="40" as="geometry"/>
                </mxCell>
                <mxCell id="187" value="&lt;div style=&quot;color: rgb(238, 255, 255); background-color: rgb(38, 50, 56); font-family: &amp;quot;Droid Sans Mono&amp;quot;, &amp;quot;monospace&amp;quot;, monospace; font-weight: normal; font-size: 14px; line-height: 19px;&quot;&gt;&lt;br&gt;&lt;/div&gt;" style="text;whiteSpace=wrap;html=1;fontSize=10;fontColor=none;" vertex="1" parent="1">
                    <mxGeometry x="950" y="260" width="190" height="40" as="geometry"/>
                </mxCell>
                <mxCell id="188" value="&lt;span style=&quot;color: rgb(130, 170, 255); font-family: &amp;quot;Droid Sans Mono&amp;quot;, &amp;quot;monospace&amp;quot;, monospace; font-size: 14px; font-style: normal; font-variant-ligatures: normal; font-variant-caps: normal; font-weight: 400; letter-spacing: normal; orphans: 2; text-align: left; text-indent: 0px; text-transform: none; widows: 2; word-spacing: 0px; -webkit-text-stroke-width: 0px; background-color: rgb(38, 50, 56); text-decoration-thickness: initial; text-decoration-style: initial; text-decoration-color: initial; float: none; display: inline !important;&quot;&gt;wp_template&lt;/span&gt;&lt;span style=&quot;font-family: &amp;quot;Droid Sans Mono&amp;quot;, &amp;quot;monospace&amp;quot;, monospace; font-size: 14px; color: rgb(137, 221, 255);&quot;&gt;(&lt;/span&gt;&lt;span style=&quot;font-family: &amp;quot;Droid Sans Mono&amp;quot;, &amp;quot;monospace&amp;quot;, monospace; font-size: 14px; color: rgb(255, 83, 112);&quot;&gt;templateId&lt;/span&gt;&lt;span style=&quot;font-family: &amp;quot;Droid Sans Mono&amp;quot;, &amp;quot;monospace&amp;quot;, monospace; font-size: 14px; color: rgb(137, 221, 255);&quot;&gt;)&lt;/span&gt;" style="rounded=0;whiteSpace=wrap;html=1;fontSize=10;" vertex="1" parent="1">
                    <mxGeometry x="730" y="730" width="280" height="40" as="geometry"/>
                </mxCell>
                <mxCell id="189" value="&lt;span style=&quot;color: rgb(130, 170, 255); font-family: &amp;quot;Droid Sans Mono&amp;quot;, &amp;quot;monospace&amp;quot;, monospace; font-size: 14px; font-style: normal; font-variant-ligatures: normal; font-variant-caps: normal; font-weight: 400; letter-spacing: normal; orphans: 2; text-align: left; text-indent: 0px; text-transform: none; widows: 2; word-spacing: 0px; -webkit-text-stroke-width: 0px; background-color: rgb(38, 50, 56); text-decoration-thickness: initial; text-decoration-style: initial; text-decoration-color: initial; float: none; display: inline !important;&quot;&gt;getChosenAttributes&lt;/span&gt;&lt;span style=&quot;background-color: rgb(38, 50, 56); color: rgb(238, 255, 255); font-family: &amp;quot;Droid Sans Mono&amp;quot;, &amp;quot;monospace&amp;quot;, monospace; font-size: 14px;&quot;&gt;()&lt;br&gt;&lt;/span&gt;" style="rounded=0;whiteSpace=wrap;html=1;fontSize=10;" vertex="1" parent="1">
                    <mxGeometry x="730" y="250" width="280" height="40" as="geometry"/>
                </mxCell>
                <mxCell id="190" value="&lt;div style=&quot;color: rgb(238, 255, 255); background-color: rgb(38, 50, 56); font-family: &amp;quot;Droid Sans Mono&amp;quot;, &amp;quot;monospace&amp;quot;, monospace; font-weight: normal; font-size: 14px; line-height: 19px;&quot;&gt;&lt;br&gt;&lt;/div&gt;" style="text;whiteSpace=wrap;html=1;" vertex="1" parent="1">
                    <mxGeometry x="950" y="830" width="130" height="40" as="geometry"/>
                </mxCell>
                <mxCell id="191" value="&lt;div style=&quot;color: rgb(238, 255, 255); background-color: rgb(38, 50, 56); font-family: &amp;quot;Droid Sans Mono&amp;quot;, &amp;quot;monospace&amp;quot;, monospace; font-weight: normal; font-size: 14px; line-height: 19px;&quot;&gt;&lt;br&gt;&lt;/div&gt;" style="text;whiteSpace=wrap;html=1;" vertex="1" parent="1">
                    <mxGeometry x="-830" y="380" width="110" height="40" as="geometry"/>
                </mxCell>
                <mxCell id="192" value="&lt;div style=&quot;color: rgb(238, 255, 255); background-color: rgb(38, 50, 56); font-family: &amp;quot;Droid Sans Mono&amp;quot;, &amp;quot;monospace&amp;quot;, monospace; font-size: 14px; line-height: 19px;&quot;&gt;&lt;div style=&quot;line-height: 19px;&quot;&gt;&lt;span style=&quot;color: rgb(195, 232, 141);&quot;&gt;submit&lt;/span&gt;&lt;/div&gt;&lt;div style=&quot;line-height: 19px;&quot;&gt;&lt;span style=&quot;color: rgb(195, 232, 141); text-align: left;&quot;&gt;form.cart&lt;/span&gt;&lt;br&gt;&lt;/div&gt;&lt;/div&gt;" style="rounded=0;whiteSpace=wrap;html=1;fontSize=10;" vertex="1" parent="1">
                    <mxGeometry x="-1000" y="150" width="280" height="40" as="geometry"/>
                </mxCell>
                <mxCell id="195" style="edgeStyle=none;html=0;entryX=0.5;entryY=0;entryDx=0;entryDy=0;fontSize=10;fontColor=none;" edge="1" parent="1">
                    <mxGeometry relative="1" as="geometry">
                        <mxPoint x="-860.77" y="190" as="sourcePoint"/>
                        <mxPoint x="-860.77" y="270" as="targetPoint"/>
                    </mxGeometry>
                </mxCell>
                <mxCell id="196" value="&lt;div style=&quot;color: rgb(238, 255, 255); background-color: rgb(38, 50, 56); font-family: &amp;quot;Droid Sans Mono&amp;quot;, &amp;quot;monospace&amp;quot;, monospace; font-weight: normal; font-size: 14px; line-height: 19px;&quot;&gt;&lt;br&gt;&lt;/div&gt;" style="text;whiteSpace=wrap;html=1;" vertex="1" parent="1">
                    <mxGeometry x="-900" y="450" width="140" height="40" as="geometry"/>
                </mxCell>
                <mxCell id="198" value="&lt;div style=&quot;color: rgb(238, 255, 255); background-color: rgb(38, 50, 56); font-family: &amp;quot;Droid Sans Mono&amp;quot;, &amp;quot;monospace&amp;quot;, monospace; font-size: 14px; line-height: 19px;&quot;&gt;&lt;div style=&quot;line-height: 19px;&quot;&gt;&lt;span style=&quot;color: rgb(130, 170, 255); text-align: left;&quot;&gt;addToCartAjax&lt;/span&gt;&lt;span style=&quot;color: rgb(137, 221, 255);&quot;&gt;(&lt;/span&gt;&lt;span style=&quot;color: rgb(255, 83, 112);&quot;&gt;$button&lt;/span&gt;&lt;span style=&quot;color: rgb(137, 221, 255);&quot;&gt;,&lt;/span&gt;&lt;span style=&quot;&quot;&gt; &lt;/span&gt;&lt;span style=&quot;color: rgb(255, 83, 112);&quot;&gt;productData&lt;/span&gt;&lt;span style=&quot;color: rgb(137, 221, 255);&quot;&gt;)&lt;/span&gt;&lt;/div&gt;&lt;/div&gt;" style="rounded=0;whiteSpace=wrap;html=1;fontSize=10;" vertex="1" parent="1">
                    <mxGeometry x="-1000" y="400" width="280" height="40" as="geometry"/>
                </mxCell>
                <mxCell id="199" value="&lt;div style=&quot;color: rgb(238, 255, 255); background-color: rgb(38, 50, 56); font-family: &amp;quot;Droid Sans Mono&amp;quot;, &amp;quot;monospace&amp;quot;, monospace; font-size: 14px; line-height: 19px;&quot;&gt;&lt;div style=&quot;line-height: 19px;&quot;&gt;&lt;div style=&quot;line-height: 19px;&quot;&gt;&lt;span style=&quot;color: #c3e88d;&quot;&gt;added_to_cart&lt;/span&gt;&lt;/div&gt;&lt;/div&gt;&lt;/div&gt;" style="rounded=0;whiteSpace=wrap;html=1;fontSize=10;" vertex="1" parent="1">
                    <mxGeometry x="-1000" y="520" width="280" height="40" as="geometry"/>
                </mxCell>
                <mxCell id="200" style="edgeStyle=none;html=0;entryX=0.5;entryY=0;entryDx=0;entryDy=0;fontSize=10;fontColor=none;" edge="1" parent="1">
                    <mxGeometry relative="1" as="geometry">
                        <mxPoint x="-860.63" y="320" as="sourcePoint"/>
                        <mxPoint x="-860.63" y="400" as="targetPoint"/>
                    </mxGeometry>
                </mxCell>
                <mxCell id="201" value="&lt;div style=&quot;color: rgb(238, 255, 255); background-color: rgb(38, 50, 56); font-family: &amp;quot;Droid Sans Mono&amp;quot;, &amp;quot;monospace&amp;quot;, monospace; font-size: 14px; line-height: 19px;&quot;&gt;&lt;div style=&quot;line-height: 19px;&quot;&gt;&lt;br&gt;&lt;/div&gt;&lt;/div&gt;" style="rounded=0;whiteSpace=wrap;html=1;fontSize=10;" vertex="1" parent="1">
                    <mxGeometry x="-1360" y="520" width="280" height="40" as="geometry"/>
                </mxCell>
                <mxCell id="202" value="&lt;div style=&quot;color: rgb(238, 255, 255); background-color: rgb(38, 50, 56); font-family: &amp;quot;Droid Sans Mono&amp;quot;, &amp;quot;monospace&amp;quot;, monospace; font-size: 14px; line-height: 19px;&quot;&gt;&lt;div style=&quot;line-height: 19px;&quot;&gt;&lt;br&gt;&lt;/div&gt;&lt;/div&gt;" style="rounded=0;whiteSpace=wrap;html=1;fontSize=10;" vertex="1" parent="1">
                    <mxGeometry x="-640" y="520" width="280" height="40" as="geometry"/>
                </mxCell>
                <mxCell id="203" value="&lt;div style=&quot;color: rgb(238, 255, 255); background-color: rgb(38, 50, 56); font-family: &amp;quot;Droid Sans Mono&amp;quot;, &amp;quot;monospace&amp;quot;, monospace; font-size: 14px; line-height: 19px;&quot;&gt;&lt;div style=&quot;line-height: 19px;&quot;&gt;&lt;div style=&quot;line-height: 19px;&quot;&gt;&lt;span style=&quot;color: #82aaff;&quot;&gt;updateFragments&lt;/span&gt;&lt;span style=&quot;color: rgb(137, 221, 255);&quot;&gt;(&lt;/span&gt;&lt;span style=&quot;color: rgb(255, 83, 112);&quot;&gt;response&lt;/span&gt;&lt;span style=&quot;color: rgb(137, 221, 255);&quot;&gt;)&lt;/span&gt;&lt;/div&gt;&lt;/div&gt;&lt;/div&gt;" style="rounded=0;whiteSpace=wrap;html=1;fontSize=10;" vertex="1" parent="1">
                    <mxGeometry x="-1000" y="760" width="280" height="40" as="geometry"/>
                </mxCell>
                <mxCell id="204" value="&lt;div style=&quot;color: rgb(238, 255, 255); background-color: rgb(38, 50, 56); font-family: &amp;quot;Droid Sans Mono&amp;quot;, &amp;quot;monospace&amp;quot;, monospace; font-weight: normal; font-size: 14px; line-height: 19px;&quot;&gt;&lt;div style=&quot;line-height: 19px;&quot;&gt;&lt;span style=&quot;color: #82aaff;&quot;&gt;addedToCart&lt;/span&gt;&lt;span style=&quot;color: #89ddff;&quot;&gt;(&lt;/span&gt;&lt;span style=&quot;color: #ff5370;&quot;&gt;e&lt;/span&gt;&lt;span style=&quot;color: #89ddff;&quot;&gt;,&lt;/span&gt; &lt;span style=&quot;color: #ff5370;&quot;&gt;response&lt;/span&gt;&lt;span style=&quot;color: #89ddff;&quot;&gt;,&lt;/span&gt; &lt;span style=&quot;color: #ff5370;&quot;&gt;hash&lt;/span&gt;&lt;span style=&quot;color: #89ddff;&quot;&gt;,&lt;/span&gt; &lt;span style=&quot;color: #ff5370;&quot;&gt;$button&lt;/span&gt;&lt;span style=&quot;color: #89ddff;&quot;&gt;)&lt;/span&gt;&lt;/div&gt;&lt;/div&gt;" style="rounded=0;whiteSpace=wrap;html=1;fontSize=10;" vertex="1" parent="1">
                    <mxGeometry x="-1000" y="640" width="280" height="40" as="geometry"/>
                </mxCell>
                <mxCell id="205" style="edgeStyle=none;html=0;entryX=0.5;entryY=0;entryDx=0;entryDy=0;fontSize=10;fontColor=none;" edge="1" parent="1">
                    <mxGeometry relative="1" as="geometry">
                        <mxPoint x="-859.9999999999999" y="560" as="sourcePoint"/>
                        <mxPoint x="-859.9999999999999" y="640" as="targetPoint"/>
                    </mxGeometry>
                </mxCell>
                <mxCell id="206" style="edgeStyle=none;html=0;entryX=0.5;entryY=0;entryDx=0;entryDy=0;fontSize=10;fontColor=none;" edge="1" parent="1">
                    <mxGeometry relative="1" as="geometry">
                        <mxPoint x="-860.6299999999999" y="440" as="sourcePoint"/>
                        <mxPoint x="-860.6299999999999" y="520" as="targetPoint"/>
                    </mxGeometry>
                </mxCell>
                <mxCell id="208" style="edgeStyle=none;html=0;entryX=0.5;entryY=0;entryDx=0;entryDy=0;fontSize=10;fontColor=none;" edge="1" parent="1">
                    <mxGeometry relative="1" as="geometry">
                        <mxPoint x="-860.62" y="680" as="sourcePoint"/>
                        <mxPoint x="-860.62" y="760" as="targetPoint"/>
                    </mxGeometry>
                </mxCell>
            </root>
        </mxGraphModel>
    </diagram>
</mxfile>